<svg width="50" height="22" viewBox="0 0 50 22" fill="none" xmlns="http://www.w3.org/2000/svg">
<path d="M39.4121 17.7334C39.4121 17.9129 39.4266 18.0884 39.4491 18.2629C39.7096 20.3374 41.4771 21.9434 43.6226 21.9434C45.8261 21.9434 47.6321 20.2489 47.8146 18.0934C47.8246 17.9744 47.8331 17.8544 47.8331 17.7334C47.8331 15.4084 45.9476 13.5229 43.6226 13.5229C41.2971 13.5234 39.4121 15.4084 39.4121 17.7334Z" fill="black"/>
<path d="M4.59961 17.7334C4.59961 17.9129 4.61461 18.0884 4.63661 18.2629C4.89711 20.3374 6.66461 21.9434 8.81011 21.9434C11.0141 21.9434 12.8201 20.2489 13.0026 18.0934C13.0131 17.9744 13.0211 17.8544 13.0211 17.7334C13.0211 15.4084 11.1361 13.5229 8.81061 13.5229C6.48511 13.5229 4.59961 15.4084 4.59961 17.7334Z" fill="black"/>
<path d="M22.4717 1.30389C26.1872 0.174394 30.4195 -0.229293 36.585 0.124207C40.9612 0.37522 41.9995 0.9997 43.4404 1.91718C45.4239 3.18024 47.3818 6.902 47.5908 8.02948C47.7998 9.15694 47.4487 9.81017 47.5322 10.6057C47.6159 11.4012 49.0361 12.9826 49.2451 14.6115C49.3546 15.468 49.0727 16.3441 48.7812 16.9836C48.4152 14.4611 46.2441 12.5158 43.6221 12.5158C40.7437 12.5158 38.4026 14.8562 38.4023 17.7346C38.4023 17.8531 38.4084 17.9777 38.4189 18.1057L13.9668 18.4894C13.9818 18.3864 13.9998 18.2844 14.0088 18.1799C14.0208 18.0314 14.0303 17.8845 14.0303 17.7346C14.0303 14.8571 11.6886 12.5148 8.80957 12.5148C5.93158 12.5148 3.58984 14.8561 3.58984 17.7346C3.58985 17.939 3.60427 18.1533 3.63477 18.3918C3.64625 18.4791 3.66521 18.5638 3.67969 18.6496L0.304688 18.7023C-0.300768 16.3219 0.0947163 14.7015 0.637695 13.4006C1.18069 12.0996 2.5572 10.3785 4.72363 9.59393C6.59863 8.91493 7.69518 8.68189 10.4092 7.17889C12.7016 5.90944 20.2621 1.97633 22.4717 1.30389ZM31.2314 1.63007C25.2116 1.63008 22.7353 2.52846 17.8799 5.13593L17.4697 6.33514C17.4815 6.35002 18.2227 7.29213 17.6279 8.51385C17.6831 8.51046 25.1017 8.05272 31.3906 7.49432L32.083 1.63007H31.2314ZM34.9873 7.14764C37.7012 6.85816 39.1096 6.70448 40.0176 6.29999C41.1929 5.77643 42.1743 3.99768 41.9805 3.25214C41.6535 1.99414 37.9284 1.71162 34.3389 1.64862L34.9873 7.14764Z" fill="black"/>
</svg>
