<svg width="50" height="19" viewBox="0 0 50 19" fill="none" xmlns="http://www.w3.org/2000/svg">
<path d="M6.9705 11.7338C5.152 11.7513 3.6925 13.2388 3.7095 15.0568C3.711 15.1973 3.724 15.3348 3.7425 15.4698C3.9615 17.0913 5.3555 18.3338 7.033 18.3173C8.7575 18.3018 10.156 16.9638 10.283 15.2748C10.29 15.1823 10.2955 15.0888 10.2945 14.9938C10.2775 13.1763 8.789 11.7168 6.9705 11.7338Z" fill="black"/>
<path d="M38.833 11.7338C37.0145 11.7513 35.5545 13.2388 35.5725 15.0568C35.5735 15.1973 35.5865 15.3348 35.605 15.4698C35.824 17.0913 37.218 18.3338 38.8955 18.3173C40.62 18.3018 42.0185 16.9638 42.1455 15.2748C42.1525 15.1823 42.158 15.0888 42.157 14.9938C42.1395 13.1763 40.6515 11.7168 38.833 11.7338Z" fill="black"/>
<path d="M15.1992 0.721436C20.4217 -0.187564 42.1143 -0.314611 45.8428 0.785889C46.0846 0.85743 46.2855 1.0273 46.3975 1.25366C49.0171 6.56118 48.0397 12.4335 48.0342 12.4666L49.1709 12.9656C49.4111 13.0712 49.5669 13.3096 49.5674 13.574V14.073C49.5674 14.4385 49.2708 14.7361 48.9053 14.7361H47.1113V15.3708C47.1113 15.5063 47.0007 15.6169 46.8652 15.6169H46.3086C46.1728 15.6167 46.0625 15.5062 46.0625 15.3708V14.7781L42.9023 15.2996C42.9028 15.2922 42.9145 15.0917 42.9131 14.989C42.8931 12.7775 41.0772 10.9783 38.8262 10.9783C36.5938 10.9999 34.7954 12.8343 34.8164 15.0662C34.8169 15.1047 34.8246 15.1733 34.8252 15.1785L11.0371 15.3337C11.0373 15.3315 11.0518 15.105 11.0508 14.99C11.0303 12.7785 9.21389 10.9802 6.96289 10.9802C4.73094 11.0018 2.93213 12.8352 2.95312 15.0671C2.95415 15.1504 2.96616 15.2296 2.97266 15.3103C1.70612 15.2753 0.918811 15.2274 0.819336 15.156C0.151909 14.6731 0.000705839 13.8989 0 13.8953V12.5593C0.000184549 12.355 0.133737 12.1749 0.329102 12.1169L0.818359 11.9695C0.818359 11.9695 0.803354 9.57264 0.797852 8.77319C0.792352 7.87177 1.39591 7.19693 2.67969 6.95288C4.15269 6.67288 8.58203 5.89038 8.58203 5.89038C8.58203 5.89038 12.4607 2.49716 13.9648 1.28101C14.3213 0.993071 14.7478 0.800469 15.1992 0.721436ZM15.6396 1.58862C15.3163 1.59521 15.006 1.72029 14.7676 1.93921L12.7637 3.78296C12.7637 3.78296 13.0014 4.0005 13.0479 4.573C13.0773 4.93795 13.0713 6.39233 13.0713 6.39233H18.5342C18.6891 6.39224 18.8167 6.27138 18.8262 6.11694L19.0967 1.83472C19.1012 1.75281 19.0725 1.67202 19.0156 1.61304C18.9587 1.55412 18.8797 1.52082 18.7979 1.52222L15.6396 1.58862Z" fill="black"/>
</svg>
