<svg width="50" height="22" viewBox="0 0 50 22" fill="none" xmlns="http://www.w3.org/2000/svg">
<path d="M0.425936 16.45C0.437342 17.3887 1.84875 17.3581 1.91199 17.3563C1.84325 17.0177 1.80669 16.6663 1.80669 16.3064C1.80669 13.3869 4.18256 11.0101 7.10282 11.0101C10.0229 11.0101 12.399 13.3869 12.399 16.3064C12.399 16.9185 12.2892 17.5033 12.0976 18.0505C17.9911 17.6632 36.5466 17.8016 37.331 17.8888C37.4302 17.8998 37.6343 17.8975 37.9158 17.8853C37.8309 17.5049 37.7807 17.1114 37.7807 16.7062C37.7807 13.7583 40.1791 11.3599 43.128 11.3599C46.0498 11.3599 48.4302 13.7195 48.4702 16.632L49.3881 16.2446C49.5913 16.1598 49.5615 16.1521 49.3656 16.0504C49.1383 15.9325 49.0004 15.5701 49.5904 14.5242C50.3344 13.2032 49.6418 12.2463 49.1986 11.8145C49.0399 11.6615 48.8947 11.3803 48.891 11.1603C48.8408 7.95075 47.6198 6.84464 46.9913 6.4869C46.7996 6.37835 46.8025 6.30004 47.0203 6.26246C49.8871 5.76684 47.9463 5.79637 47.6916 5.02987C47.4256 4.23038 45.6932 5.09617 44.7939 5.32957C44.462 5.41592 43.4177 5.60136 42.2327 5.80197C42.2869 5.7422 42.3208 5.67977 42.3036 5.61338C42.2559 5.42875 42.1997 5.28242 42.1457 5.16877C42.0514 4.96888 41.8368 4.67662 41.6671 4.53476C41.4572 4.35829 41.1153 4.18323 40.6255 4.2646C40.4627 4.29199 40.3236 4.38303 40.2048 4.5149C40.1799 4.4757 40.1551 4.43558 40.1321 4.40431C39.9309 4.12886 39.5694 3.8091 39.0271 3.9367C38.3998 4.08466 38.1276 5.57967 38.0174 6.48537C37.8065 6.51103 37.5437 6.52947 37.3649 6.52947H33.9672C34.6642 5.64209 33.8541 5.09444 33.2093 5.05116C33.0368 5.03904 32.7854 5.14403 32.5104 5.29983C32.3479 5.0258 32.057 4.86032 31.7946 4.83609C31.3652 4.79769 30.3724 5.87061 29.8999 6.41266C29.8688 6.44861 29.8493 6.48884 29.835 6.52855H21.0434V5.40503C21.0434 5.01898 20.7299 4.70554 20.3439 4.70554C19.9578 4.70554 19.6444 5.01898 19.6444 5.40503V6.52855H18.0791C17.8585 6.52855 17.8112 6.40594 17.9718 6.25533C18.9855 5.30279 22.2791 2.17 22.1097 1.83191C21.9945 1.60238 22.1329 1.24097 22.2714 0.974782C22.3728 0.779365 22.3543 0.499426 22.1705 0.376717C21.8587 0.168469 21.3103 -0.0764395 20.5361 0.0227458C20.3172 0.0508517 19.9722 0.149222 19.7738 0.245964C18.0957 1.06765 13.9659 4.62845 12.8172 5.63089C12.6509 5.77641 12.3381 5.90839 12.1177 5.92672C2.3352 6.74943 0.956079 9.93497 0.777769 11.0626C0.743452 11.2805 0.608421 11.5653 0.47003 11.7371C-0.365713 12.7793 0.117281 14.8304 0.368604 15.6768C0.431435 15.8889 0.423696 16.2293 0.425936 16.45Z" fill="black"/>
<path d="M34.283 4.46778C34.283 3.57003 33.8019 2.84161 33.2089 2.84161C32.8482 2.84161 32.5311 3.113 32.3361 3.52552C32.1822 3.26167 31.9598 3.09151 31.7101 3.09151C31.2477 3.09151 30.873 3.65893 30.873 4.35842C30.873 5.05811 31.2477 4.81483 31.7101 4.81483C31.8897 4.81483 32.0541 4.84996 32.1909 4.85383C32.3304 5.24497 32.7312 5.05302 33.209 5.05302C33.8027 5.05302 34.283 5.36565 34.283 4.46778Z" fill="black"/>
<path d="M39.1265 3.68285C39.3061 3.68285 39.4709 3.71799 39.6077 3.72186C39.7464 4.113 40.1472 3.92013 40.6254 3.92013C41.218 3.92013 41.7 4.23275 41.7 3.33489C41.7 2.43703 41.2181 1.70892 40.6254 1.70892C40.2651 1.70892 39.9472 1.9801 39.7522 2.39263C39.5991 2.12878 39.3766 1.95862 39.1265 1.95862C38.6646 1.95862 38.2891 2.52623 38.2891 3.22573C38.2891 3.92695 38.6637 3.68285 39.1265 3.68285Z" fill="black"/>
<path d="M7.10241 20.804C8.93867 20.804 10.515 19.7018 11.2139 18.1248C11.4602 17.5682 11.5992 16.9553 11.5992 16.3072C11.5992 13.8239 9.58622 11.8104 7.10241 11.8104C4.61861 11.8104 2.60547 13.8239 2.60547 16.3072C2.60547 16.6414 2.64467 16.9654 2.71321 17.2784C3.15812 19.2944 4.95292 20.804 7.10241 20.804Z" fill="black"/>
<path d="M43.1278 12.1602C40.6164 12.1602 38.5801 14.1953 38.5801 16.7071C38.5801 17.0973 38.6348 17.4735 38.7278 17.8351C39.2298 19.7992 41.0066 21.2536 43.1278 21.2536C45.5588 21.2536 47.5384 19.3433 47.6629 16.9425C47.6665 16.8638 47.6743 16.7867 47.6743 16.7062C47.6735 14.1955 45.6383 12.1602 43.1278 12.1602Z" fill="black"/>
</svg>
