<svg width="50" height="36" viewBox="0 0 50 36" fill="none" xmlns="http://www.w3.org/2000/svg">
<path d="M35.8447 0.000366211C36.5158 0.0335301 37.1028 0.279293 37.6992 0.570679C37.8841 0.661116 37.9325 0.824528 37.8965 0.975952C37.8974 0.994718 37.904 1.00921 37.9023 1.02966C37.7888 2.50431 37.7697 3.98139 37.752 5.45837C37.8035 5.32096 37.8689 5.18813 37.9688 5.07556C37.9688 5.07556 39.0594 6.33058 40.0596 8.47595C41.0597 10.6216 41.1152 12.3676 41.1152 12.3676L39.4951 12.64C39.4951 12.64 47.0961 12.2409 49.0234 14.4769L45.8232 14.222L44.8604 13.6947C44.8604 13.6947 42.2938 13.6715 39.1934 15.2513L40.1865 18.2123C40.755 18.0848 41.345 18.0131 41.9512 18.0131C46.3943 18.0132 49.9979 21.6145 49.998 26.059C49.998 30.5022 46.3944 34.1057 41.9512 34.1058C37.508 34.1058 33.9043 30.5031 33.9043 26.059C33.9044 22.803 35.8424 20.004 38.625 18.7377L37.7393 16.098C36.7078 16.775 35.6552 17.6448 34.6445 18.7592C34.2337 22.4442 32.8759 25.0496 30.5811 26.4808C29.0761 27.4182 27.3927 27.7162 25.8643 27.7162C23.8941 27.7162 22.1878 27.2251 21.4336 26.9701C21.0095 27.0255 20.5448 26.9825 20.2031 26.641C19.4039 25.8402 19.2939 25.9867 19.2939 25.9867L16.0518 26.5551C16.0799 26.8268 16.0937 27.1022 16.0938 27.3812C16.0938 31.8251 12.4916 35.4279 8.04688 35.4281C3.60334 35.4281 0.000167379 31.8262 0 27.3832C0 22.94 3.60231 19.3363 8.04688 19.3363C11.4311 19.3364 14.3207 21.4272 15.5107 24.3851L17.8027 23.7328L16.1299 20.7865C16.1299 20.7865 14.3477 19.0413 12.7842 19.6234L4.74707 14.7142C4.74707 14.7142 4.23872 12.6778 6.16602 12.4955L10.5303 15.1859C10.5218 15.1701 8.08373 10.6388 2.56543 9.80408C2.56543 9.80408 13.8028 10.0762 16.8574 11.1674C19.9121 12.2584 23.5669 14.1677 28.2031 11.1674C32.8217 8.1785 34.248 10.1698 34.2588 10.1849L34.5312 9.72205C34.5312 9.72205 33.9523 8.83377 35.4541 7.85974C35.5137 6.81735 35.4331 5.80164 35.1904 4.81873C35.1021 4.83534 35.0085 4.8327 34.915 4.78162C34.4214 4.51312 33.6421 4.07692 33.666 3.40564C33.6813 2.97866 33.9743 2.73031 34.1094 2.36169C34.193 2.13358 34.4076 2.06085 34.5957 2.09314C34.7628 2.03126 34.9567 2.06232 35.0684 2.26306C35.1407 2.39482 35.2046 2.52803 35.2705 2.6615C35.1791 1.87368 35.236 1.07012 35.4482 0.303101C35.4948 0.13338 35.6621 -0.00848472 35.8447 0.000366211ZM8.04688 21.8051C4.97253 21.8051 2.46973 24.3064 2.46875 27.3812C2.46875 30.4567 4.97074 32.9584 8.0459 32.9584C11.1214 32.9582 13.623 30.4566 13.623 27.3812C13.623 27.248 13.6118 27.1176 13.6025 26.9867L7.29297 28.0951L7.07422 26.7865L13.1133 25.0668C12.2313 23.146 10.2957 21.8052 8.04688 21.8051ZM41.9502 20.4818C41.6182 20.4818 41.2935 20.5162 40.9775 20.5717L42.7305 25.7953C42.8743 26.2273 42.6418 26.6936 42.2109 26.8392C42.1243 26.8671 42.0361 26.8822 41.9502 26.8822C41.6061 26.8822 41.2848 26.664 41.1689 26.3197L39.416 21.097C37.6121 22.0218 36.374 23.897 36.374 26.059C36.3743 29.1336 38.8749 31.6342 41.9502 31.6342C45.0254 31.634 47.5261 29.1335 47.5264 26.059C47.5264 22.9836 45.0257 20.4819 41.9502 20.4818ZM33.0205 18.474C32.6119 17.5485 31.3113 15.8173 27.4766 16.9672C23.5239 18.153 22.7059 23.327 22.5371 25.5824C24.0735 26.0094 27.2732 26.606 29.7158 25.0795C31.5781 23.9144 32.682 21.6855 33.0205 18.474ZM36.9629 3.51111C36.7324 3.71261 36.49 3.90422 36.2393 4.09998C36.1236 4.18895 35.9955 4.21698 35.8789 4.19958C36.1868 5.23525 36.3215 6.30975 36.2998 7.40955C36.4816 7.32787 36.6798 7.24682 36.8984 7.16638C36.9242 5.9479 36.9307 4.72881 36.9629 3.51111Z" fill="black"/>
<path d="M32.0226 19.8947H24.7669L23.5664 25.0229C30.8768 26.3858 32.0226 19.8947 32.0226 19.8947Z" fill="black"/>
</svg>
