<svg width="50" height="24" viewBox="0 0 50 24" fill="none" xmlns="http://www.w3.org/2000/svg">
<path d="M9.54808 16.0355C7.46058 16.0355 5.76758 17.727 5.76758 19.8155C5.76758 19.9775 5.78058 20.136 5.80058 20.291C6.03508 22.1555 7.62158 23.5965 9.54758 23.5965C11.5271 23.5965 13.1486 22.0755 13.3126 20.1385C13.3216 20.0315 13.3291 19.9245 13.3291 19.8155C13.3296 17.727 11.6371 16.0355 9.54808 16.0355Z" fill="black"/>
<path d="M41.9826 16.0355C39.8946 16.0355 38.2021 17.727 38.2021 19.8155C38.2021 19.9775 38.2146 20.136 38.2346 20.291C38.4686 22.1555 40.0561 23.5965 41.9816 23.5965C43.9606 23.5965 45.5821 22.0755 45.7466 20.1385C45.7556 20.0315 45.7621 19.9245 45.7621 19.8155C45.7631 17.727 44.0711 16.0355 41.9826 16.0355Z" fill="black"/>
<path d="M34.4727 0C34.745 0 35.0038 0.111174 35.1924 0.307617L38.9873 4.26074C41.0611 4.3298 42.8374 4.41147 44 4.46973C44.9003 4.51529 45.7161 5.01748 46.1611 5.80176L48.876 10.5928C49.2873 11.3191 49.5169 12.135 49.5449 12.9697L49.7197 18.2051C49.7497 19.0695 49.151 19.8269 48.3047 20L46.252 20.4189C46.2624 20.3401 46.2767 20.2625 46.2832 20.1826C46.2937 20.0617 46.3018 19.9389 46.3018 19.8145C46.3015 17.4333 44.3637 15.4962 41.9814 15.4961C39.6002 15.4962 37.6624 17.4333 37.6621 19.8145C37.6621 19.9999 37.6762 20.1815 37.6992 20.3584C37.7172 20.4963 37.741 20.6317 37.7715 20.7656L13.9873 21.4092L13.5664 21.3867C13.7159 21.0083 13.8146 20.6045 13.8506 20.1826C13.8606 20.0617 13.8682 19.9389 13.8682 19.8145C13.8679 17.4332 11.9302 15.4961 9.54785 15.4961C7.16635 15.4965 5.22881 17.4334 5.22852 19.8145C5.22852 19.9999 5.24412 20.1815 5.2666 20.3584C5.29259 20.5632 5.33719 20.7617 5.39062 20.957L1.81055 20.3965C1.06818 20.2809 0.463843 19.7328 0.276367 19.0049C0.105408 18.3395 -0.0488044 17.5454 0.0146484 17.0225C0.136443 16.0206 0.797577 15.6206 0.816406 15.6094C2.38495 11.8595 10.5861 10.5775 10.6387 10.5693C10.6756 10.5451 18.1425 5.63973 21.1064 4.8418C21.6201 4.70367 22.2649 4.59038 23.0098 4.49707C23.1759 4.34795 28.0094 0.00992865 28.0205 0C28.0205 0 32.9738 0 34.4727 0ZM15.2842 9.43945C14.6195 9.88877 14.0225 10.314 13.5352 10.6699C13.3539 10.8033 13.2799 11.0402 13.3555 11.252C13.4314 11.4649 13.6389 11.6022 13.8643 11.5898L14.6934 11.543C14.6999 11.5301 14.8864 11.1674 15.2842 10.8311V9.43945ZM25.6768 5.41504C23.9769 5.50754 22.6084 5.66279 21.8584 5.90527C20.2105 6.43884 18.2943 7.50334 16.6035 8.5752V10.2861C16.6533 10.2811 16.6967 10.2686 16.749 10.2666C18.2031 10.2124 18.4646 11.5117 18.4707 11.543L25.6768 11.249V5.41504ZM35.8574 5.35449C33.268 5.296 30.4685 5.27065 28.0166 5.32715V11.1533L36.4033 10.8105L35.8574 5.35449ZM38.7451 10.7148L44.6709 10.4727C45.1743 10.4516 45.6323 10.1743 45.8838 9.7373C46.1348 9.30131 46.1447 8.76484 45.9092 8.31836L44.8809 6.36719C44.6573 5.94237 44.2245 5.66612 43.7451 5.64062C42.7085 5.58462 40.6625 5.49246 38.2139 5.41797L38.7451 10.7148ZM31.2559 4.04688C30.4313 4.05505 29.2893 4.10535 28.1182 4.16895C30.6168 4.10269 33.3751 4.11938 35.9424 4.17578C34.3513 4.10186 32.4961 4.0346 31.2559 4.04688Z" fill="black"/>
</svg>
