<svg width="50" height="27" viewBox="0 0 50 27" fill="none" xmlns="http://www.w3.org/2000/svg">
<path d="M34.4727 0C34.745 0 35.0038 0.111174 35.1924 0.307617L38.7715 4.03613C39.6039 4.18662 40.3038 4.33025 40.874 4.44727C41.7112 4.62035 42.3164 4.74414 42.6182 4.74414C42.7631 4.73127 42.8283 4.72754 42.8896 4.72754C43.3079 4.72754 43.5507 4.91574 43.6797 5.07324C43.9572 5.41078 43.9659 5.90105 43.9082 6.2998C44.0654 6.45423 44.4344 6.75359 44.7422 7.00195C45.9921 8.01439 46.9668 8.84228 47.1992 9.50781C47.2318 9.60238 47.2581 9.62695 47.2598 9.62695C47.3397 9.62543 47.3887 9.6189 47.4375 9.61426C47.5158 9.60616 47.5956 9.59863 47.6748 9.59863C48.4659 9.59885 48.7002 10.3661 48.8066 10.9424C48.9599 11.7665 49.0384 12.7225 49.1084 13.5664C49.186 14.5167 49.2728 15.5945 49.4482 15.8701C49.7733 16.3802 50.2346 18.7792 49.3291 20.5508C48.7996 21.5867 47.8855 22.2272 46.6699 22.4277C46.6885 22.2896 46.7022 22.149 46.71 22.0078C46.7163 21.9084 46.7256 21.8101 46.7256 21.71C46.7256 21.6703 46.7198 21.6305 46.7197 21.5918C46.6559 18.7927 44.3638 16.5342 41.5508 16.5342C38.6975 16.5342 36.376 18.8565 36.376 21.71C36.376 21.8046 36.385 21.8961 36.3896 21.9893C36.3966 22.1228 36.4069 22.2556 36.4248 22.3877C36.4427 22.5213 36.4602 22.6537 36.4883 22.7842C30.12 22.9442 21.8975 23.1272 15.4355 23.2656C15.4768 23.1344 15.509 23.0003 15.54 22.8652C15.5704 22.7347 15.5935 22.6003 15.6133 22.4658C15.6494 22.218 15.6748 21.9678 15.6748 21.71C15.6748 18.8567 13.3532 16.5344 10.5 16.5342C7.64655 16.5342 5.32422 18.8565 5.32422 21.71C5.32425 22.0425 5.35831 22.3668 5.41895 22.6816C5.44417 22.8154 5.47697 22.9465 5.5127 23.0762C5.5496 23.2105 5.59271 23.342 5.63965 23.4717C5.18248 23.4811 4.91772 23.4856 4.88574 23.4873C4.87498 23.4912 4.37069 23.5566 3.70508 23.5566C1.55519 23.5566 0.27738 22.9046 0.00976562 21.6719L0 21.5869V16.9434L0.0849609 16.834C0.0854702 16.834 0.269436 16.5647 0.350586 15.9082C0.45163 15.0833 1.08955 14.3819 1.4834 14.0879C1.66117 13.4801 2.60189 11.908 7.53516 10.9365C11.0133 10.2528 12.1523 9.8363 12.5127 9.66211L12.7158 9.47363C12.9484 9.25539 17.6031 4.98239 24.0908 3.52734C25.5653 2.20365 28.0205 0 28.0205 0C28.0205 0 32.9739 0 34.4727 0ZM28.6768 5.41504C26.9771 5.50753 25.6094 5.66284 24.8594 5.90527C23.2114 6.43878 21.2945 7.50321 19.6035 8.5752V10.2871C19.6535 10.2821 19.6965 10.2686 19.749 10.2666C21.221 10.2116 21.4707 11.5439 21.4707 11.5439L28.6768 11.249V5.41504ZM31.7451 10.7148L37.6709 10.4736C38.1744 10.4526 38.6323 10.1742 38.8838 9.7373C39.1347 9.30138 39.1446 8.76575 38.9092 8.31934L37.8809 6.36719C37.6573 5.94244 37.2244 5.66612 36.7451 5.64062C35.7085 5.58462 33.6626 5.49246 31.2139 5.41797L31.7451 10.7148Z" fill="black"/>
<path d="M6.48341 23.4527C7.15788 25.003 8.70082 26.0875 10.4992 26.0875C12.3621 26.0875 13.9489 24.922 14.5818 23.2831C14.6319 23.1525 14.6766 23.0187 14.7148 22.8819C14.7513 22.7513 14.7816 22.6175 14.8065 22.4822C14.8508 22.2312 14.8788 21.9729 14.8788 21.7088C14.8788 19.29 12.9187 17.3298 10.4999 17.3298C8.08115 17.3298 6.12109 19.29 6.12109 21.7088C6.12109 22.0369 6.15998 22.3563 6.22875 22.6642C6.25788 22.798 6.29287 22.9294 6.33521 23.0576C6.37845 23.193 6.42785 23.3235 6.48341 23.4527Z" fill="black"/>
<path d="M37.303 22.7623C37.7757 24.6703 39.4957 26.0875 41.5497 26.0875C43.6972 26.0875 45.4801 24.5396 45.8532 22.5001C45.8772 22.368 45.8958 22.235 45.909 22.0989C45.9207 21.97 45.9286 21.8408 45.9286 21.7087C45.9286 21.7055 45.9286 21.7024 45.9286 21.6985C45.9239 19.2853 43.9646 17.3297 41.5497 17.3297C39.1317 17.3297 37.1709 19.2899 37.1709 21.7087C37.1709 21.7965 37.1795 21.882 37.1841 21.9691C37.1919 22.1036 37.2051 22.2356 37.2253 22.3663C37.2455 22.5003 37.2719 22.6324 37.303 22.7623Z" fill="black"/>
</svg>
